<?xml version="1.0" standalone="no"?>
<!DOCTYPE svg PUBLIC "-//W3C//DTD SVG 20010904//EN"
 "http://www.w3.org/TR/2001/REC-SVG-20010904/DTD/svg10.dtd">
<svg version="1.0" xmlns="http://www.w3.org/2000/svg"
 width="500.000000pt" height="500.000000pt" viewBox="0 0 500.000000 500.000000"
 preserveAspectRatio="xMidYMid meet">

<g transform="translate(0.000000,500.000000) scale(0.100000,-0.100000)"
fill="#000000" stroke="none">
<path d="M3062 3998 l3 -113 85 -30 c92 -34 183 -78 215 -104 18 -15 19 -15 6
2 -7 9 -10 17 -5 17 5 0 9 45 9 100 0 55 -4 100 -9 100 -5 0 -3 6 3 14 14 16
-4 28 -101 67 -48 19 -181 58 -201 59 -4 0 -6 -51 -5 -112z"/>
<path d="M2506 4073 c-3 -3 -23 -6 -43 -5 -32 0 -35 -1 -15 -8 12 -5 30 -7 40
-4 14 5 15 4 2 -5 -8 -6 -24 -8 -35 -5 -17 6 -16 3 5 -16 17 -15 21 -24 13
-27 -7 -3 -13 -13 -13 -24 0 -10 -6 -19 -12 -20 -7 0 -4 -4 7 -9 19 -8 19 -8
-5 -19 l-25 -11 28 5 c15 3 27 1 27 -5 0 -5 -5 -10 -11 -10 -24 0 23 -31 53
-35 18 -3 47 -9 65 -14 17 -5 34 -7 37 -3 3 3 6 1 6 -4 0 -5 21 -16 47 -24 72
-21 228 -105 313 -169 109 -81 227 -204 293 -302 270 -406 258 -875 -29 -1154
-87 -85 -156 -127 -271 -168 -84 -30 -96 -31 -261 -33 -95 -1 -175 2 -178 7
-3 5 -10 9 -15 9 -6 0 -8 -4 -5 -9 7 -11 -20 -22 -38 -15 -8 3 -17 1 -21 -5
-3 -6 -1 -11 4 -11 6 0 11 -4 11 -10 0 -5 -6 -7 -14 -4 -10 4 -13 -3 -10 -27
2 -18 9 -36 15 -40 8 -4 5 -10 -7 -18 -14 -8 -15 -11 -4 -11 13 0 13 -1 0 -10
-11 -8 -7 -9 15 -4 28 6 29 5 11 -8 -18 -14 -14 -16 55 -33 110 -27 309 -31
421 -10 104 21 155 51 284 169 184 169 329 393 410 631 57 168 20 397 -106
660 -114 236 -313 465 -522 598 -167 107 -493 238 -522 210z"/>
<path d="M2195 3860 c-67 -14 -167 -50 -215 -78 -82 -47 -173 -121 -191 -154
-9 -16 -4 -16 43 4 136 55 287 77 423 59 108 -13 300 -49 355 -65 163 -49 325
-159 439 -301 120 -148 178 -282 200 -460 5 -44 15 -111 22 -150 19 -112 6
-303 -26 -400 -15 -44 -36 -97 -47 -118 -18 -36 -18 -38 -1 -28 31 17 110 104
145 161 118 187 148 434 84 675 -104 387 -424 714 -811 830 -75 22 -114 27
-235 30 -80 2 -163 0 -185 -5z"/>
<path d="M1464 3658 c-101 -104 -137 -159 -198 -301 -59 -137 -82 -376 -52
-551 50 -293 203 -581 415 -785 90 -86 203 -167 160 -114 -13 15 -11 16 15 9
29 -7 72 12 89 41 4 7 19 13 32 13 14 0 25 5 25 10 0 6 3 9 8 8 16 -5 51 23
46 37 -4 8 -10 15 -15 15 -4 0 -19 10 -31 23 -13 12 -52 47 -87 77 -69 59
-186 194 -249 287 -156 230 -242 498 -242 754 0 182 44 356 125 491 19 32 33
58 32 58 -1 0 -34 -33 -73 -72z"/>
<path d="M3768 3683 c61 -87 134 -270 164 -408 17 -80 17 -420 0 -500 -43
-200 -112 -388 -194 -527 -15 -27 -25 -55 -22 -63 4 -8 0 -23 -7 -32 -8 -9 -9
-14 -4 -11 12 7 10 -115 -1 -134 -5 -8 0 -7 11 2 17 14 18 13 10 -5 -4 -11 -8
-28 -9 -37 0 -9 -4 -15 -7 -12 -4 2 -10 0 -13 -5 -12 -18 13 -21 30 -4 35 36
149 220 195 318 100 213 139 373 146 600 7 233 -24 390 -115 575 -38 78 -130
207 -178 250 l-28 25 22 -32z"/>
<path d="M2093 3669 c11 -6 32 -9 47 -7 17 3 26 0 23 -5 -4 -6 5 -8 20 -5 15
3 28 1 29 -4 2 -6 29 -5 68 3 58 12 62 14 35 20 -16 4 -77 7 -135 8 -79 0
-100 -2 -87 -10z"/>
<path d="M2490 3620 c-13 -9 -13 -10 0 -10 13 0 13 -1 0 -10 -13 -9 -13 -10 0
-10 13 0 13 -1 0 -10 -8 -5 -10 -10 -4 -10 12 0 12 -29 0 -48 -4 -7 -3 -18 2
-25 5 -7 12 -24 16 -39 5 -22 14 -29 44 -34 48 -9 151 -56 205 -93 141 -97
245 -257 268 -414 34 -229 -93 -418 -306 -458 -57 -10 -182 -7 -220 7 -20 7
-20 6 0 -10 15 -13 16 -16 4 -13 -17 6 -16 -7 6 -80 5 -14 3 -23 -4 -23 -6 0
-11 -13 -11 -30 0 -31 30 -57 51 -44 6 4 15 1 19 -6 4 -7 41 -14 87 -17 162
-11 324 47 428 152 111 112 155 229 155 410 -1 230 -82 410 -265 590 -95 93
-208 164 -327 206 -87 30 -123 35 -148 19z"/>
<path d="M3787 3008 c1 -330 4 -602 6 -605 8 -8 65 141 96 249 70 250 67 544
-7 759 -20 55 -77 178 -90 191 -4 4 -6 -263 -5 -594z"/>
<path d="M2347 3410 c-64 -16 -131 -56 -176 -105 -23 -26 -40 -49 -37 -53 4
-3 48 -6 99 -7 50 -1 124 -9 162 -18 39 -9 96 -20 127 -26 78 -13 125 -37 178
-91 61 -60 89 -122 100 -217 5 -43 14 -98 19 -123 13 -59 14 -176 1 -219 -12
-42 -7 -48 22 -28 182 122 219 364 91 594 -66 118 -197 228 -326 273 -70 24
-202 34 -260 20z"/>
<path d="M2528 3173 c-6 -25 -2 -430 5 -426 4 2 6 -7 3 -20 -4 -22 0 -26 27
-31 102 -18 215 69 219 169 3 97 -16 154 -72 219 -54 61 -174 120 -182 89z"/>
<path d="M2153 2941 c-14 -9 -43 -67 -43 -87 0 -33 66 -140 125 -201 33 -34
91 -80 128 -102 60 -34 73 -38 100 -30 50 14 83 69 41 69 -9 0 -12 -5 -8 -12
5 -7 3 -8 -5 -3 -9 5 -10 10 -2 18 7 7 -12 32 -64 85 -41 41 -72 78 -70 83 3
4 0 11 -6 15 -8 5 -10 2 -5 -7 4 -8 1 -6 -7 4 -8 9 -19 17 -26 17 -6 0 -11 6
-11 13 0 15 -36 48 -43 40 -3 -3 -4 6 -1 19 2 12 1 17 -2 10 -4 -10 -19 -1
-49 31 -23 25 -47 42 -52 38z"/>
<path d="M1671 2837 c-1 -23 43 -135 77 -197 145 -264 404 -486 665 -570 57
-18 73 -20 123 -11 56 11 82 21 52 21 -9 0 -18 7 -22 15 -3 8 -10 15 -17 15
-6 0 -20 11 -30 25 -11 13 -37 34 -59 46 -22 12 -37 26 -34 31 3 4 -2 8 -11 8
-9 0 -13 5 -10 10 3 6 1 10 -5 10 -6 0 -25 15 -42 33 -17 17 -28 26 -24 20 5
-9 2 -11 -9 -7 -9 4 -14 9 -11 12 3 3 -4 13 -16 23 -23 21 -32 24 -23 9 3 -5
0 -7 -9 -4 -9 3 -12 12 -9 21 4 10 2 14 -4 10 -6 -4 -47 24 -91 62 -44 38 -83
67 -88 63 -4 -4 -4 -2 -1 4 4 7 -6 22 -22 35 -16 13 -28 26 -26 30 3 3 -7 11
-20 17 -14 7 -25 19 -25 27 0 9 -4 13 -10 10 -5 -3 -10 -1 -10 5 0 6 -5 8 -12
4 -8 -5 -9 -2 -5 9 3 10 2 17 -2 17 -5 0 -12 -6 -14 -12 -4 -9 -6 -8 -6 3 -1
13 -51 59 -64 59 -3 0 -32 27 -64 60 -33 33 -63 57 -66 54 -3 -3 -10 4 -17 15
-6 12 -15 19 -20 16 -4 -3 -11 1 -13 7 -3 8 -6 5 -6 -5z"/>
<path d="M1495 2125 c29 -73 96 -181 152 -244 30 -34 57 -60 60 -58 2 3 -11
29 -30 58 -18 30 -41 73 -50 95 -9 23 -34 61 -55 85 -22 24 -52 58 -66 74
l-27 30 16 -40z"/>
<path d="M3291 1999 c-41 -38 -109 -97 -153 -131 l-79 -61 2 -108 c0 -60 3
-109 6 -109 23 0 224 149 286 211 28 29 36 46 15 33 -7 -4 -8 -3 -4 5 9 14 11
195 2 209 -3 6 0 13 6 15 7 3 9 6 3 6 -5 0 -43 -31 -84 -70z"/>
<path d="M2450 2028 c8 -9 25 -19 37 -23 18 -5 22 -3 17 9 -3 8 -12 12 -20 9
-8 -3 -22 1 -32 8 -15 12 -16 11 -2 -3z"/>
<path d="M2980 1527 c-36 -18 -101 -48 -145 -67 -107 -45 -107 -45 -103 -102
1 -26 -1 -50 -7 -52 -5 -3 -4 -5 3 -5 7 -1 10 -6 7 -11 -4 -7 3 -9 22 -4 55
12 179 53 234 78 l56 24 1 86 c1 47 0 86 -1 85 -1 0 -31 -15 -67 -32z"/>
<path d="M1680 1506 c0 -9 69 -55 74 -48 2 4 -13 18 -35 30 -21 12 -39 21 -39
18z"/>
</g>
</svg>
